{
  "accessors": [
    {
      "bufferView": 2,
      "componentType": 5126,
      "count": 60099,
      "max": [
        476.08758544921875,
        244.88291931152344,
        376.21096801757812
      ],
      "min": [
        -523.91241455078125,
        -107.04424285888672,
        -350.79544067382812
      ],
      "type": "VEC3"
    },
    {
      "bufferView": 2,
      "byteOffset": 721188,
      "componentType": 5126,
      "count": 60099,
      "max": [
        0.99997884035110474,
        0.99999970197677612,
        0.9999699592590332
      ],
      "min": [
        -0.99988192319869995,
        -0.64031147956848145,
        -0.99976152181625366
      ],
      "type": "VEC3"
    },
    {
      "bufferView": 3,
      "componentType": 5126,
      "count": 60099,
      "max": [
        0.99915039539337158,
        0.99997419118881226,
        0.99882030487060547,
        1
      ],
      "min": [
        -0.99952483177185059,
        -0.92677605152130127,
        -0.99978083372116089,
        -1
      ],
      "type": "VEC4"
    },
    {
      "bufferView": 1,
      "componentType": 5126,
      "count": 60099,
      "max": [
        0.99764460325241089,
        0.99955272674560547
      ],
      "min": [
        0.00044191229972057045,
        0.00090670585632324219
      ],
      "type": "VEC2"
    },
    {
      "bufferView": 0,
      "componentType": 5125,
      "count": 322953,
      "max": [
        60098
      ],
      "min": [
        0
      ],
      "type": "SCALAR"
    }
  ],
  "asset": {
    "extras": {
      "author": "okajima (https://sketchfab.com/okajima)",
      "license": "CC-BY-4.0 (http://creativecommons.org/licenses/by/4.0/)",
      "source": "https://sketchfab.com/3d-models/frips-0ee4f66bc63e477bb81673d7e3e633c6",
      "title": "[習作]新宿御苑「Frips」のガトーショコラ"
    },
    "generator": "Sketchfab-5.47.0",
    "version": "2.0"
  },
  "bufferViews": [
    {
      "buffer": 0,
      "byteLength": 1291812,
      "byteOffset": 0,
      "name": "floatBufferViews",
      "target": 34963
    },
    {
      "buffer": 0,
      "byteLength": 480792,
      "byteOffset": 1291812,
      "byteStride": 8,
      "name": "floatBufferViews",
      "target": 34962
    },
    {
      "buffer": 0,
      "byteLength": 1442376,
      "byteOffset": 1772604,
      "byteStride": 12,
      "name": "floatBufferViews",
      "target": 34962
    },
    {
      "buffer": 0,
      "byteLength": 961584,
      "byteOffset": 3214980,
      "byteStride": 16,
      "name": "floatBufferViews",
      "target": 34962
    }
  ],
  "buffers": [
    {
      "byteLength": 4176564,
      "uri": "scene.bin"
    }
  ],
  "extensionsUsed": [
    "KHR_materials_unlit"
  ],
  "images": [
    {
      "uri": "textures/Material0_baseColor.jpeg"
    }
  ],
  "materials": [
    {
      "doubleSided": true,
      "emissiveFactor": [
        0,
        0,
        0
      ],
      "extensions": {
        "KHR_materials_unlit": {}
      },
      "name": "Material0",
      "pbrMetallicRoughness": {
        "baseColorFactor": [
          1,
          1,
          1,
          1
        ],
        "baseColorTexture": {
          "index": 0,
          "texCoord": 0
        },
        "metallicFactor": 0,
        "roughnessFactor": 1
      }
    }
  ],
  "meshes": [
    {
      "name": "Stereo textured mesh_Material0_0",
      "primitives": [
        {
          "attributes": {
            "NORMAL": 1,
            "POSITION": 0,
            "TANGENT": 2,
            "TEXCOORD_0": 3
          },
          "indices": 4,
          "material": 0,
          "mode": 4
        }
      ]
    }
  ],
  "nodes": [
    {
      "children": [
        1
      ],
      "name": "RootNode (gltf orientation matrix)",
      "rotation": [
        -0.70710678118654746,
        -0,
        -0,
        0.70710678118654757
      ]
    },
    {
      "children": [
        2
      ],
      "name": "RootNode (model correction matrix)"
    },
    {
      "children": [
        3
      ],
      "matrix": [
        1,
        0,
        0,
        0,
        0,
        0,
        1,
        0,
        0,
        -1,
        0,
        0,
        0,
        0,
        0,
        1
      ],
      "name": "sketchfabTemp.obj.fbx"
    },
    {
      "children": [
        4
      ],
      "name": "RootNode"
    },
    {
      "children": [
        5
      ],
      "name": "Stereo textured mesh"
    },
    {
      "mesh": 0,
      "name": "Stereo textured mesh_Material0_0"
    }
  ],
  "samplers": [
    {
      "magFilter": 9729,
      "minFilter": 9987,
      "wrapS": 10497,
      "wrapT": 10497
    }
  ],
  "scene": 0,
  "scenes": [
    {
      "name": "OSG_Scene",
      "nodes": [
        0
      ]
    }
  ],
  "textures": [
    {
      "sampler": 0,
      "source": 0
    }
  ]
}

